<svg width="456" height="401" viewBox="0 0 456 401" fill="none" xmlns="http://www.w3.org/2000/svg">
<path fill-rule="evenodd" clip-rule="evenodd" d="M230.176 290C236.532 290 242.088 291.154 246.844 293.461C251.647 295.768 255.367 298.993 258.004 303.136C260.687 307.28 262.029 312.13 262.029 317.687C262.029 323.243 260.687 328.092 258.004 332.235C255.367 336.379 251.647 339.605 246.844 341.912C242.088 344.219 236.532 345.373 230.176 345.373C223.819 345.373 218.24 344.219 213.437 341.912C208.682 339.605 204.962 336.379 202.278 332.235C199.641 328.092 198.323 323.243 198.323 317.687C198.323 312.13 199.641 307.28 202.278 303.136C204.961 298.993 208.682 295.768 213.437 293.461C218.24 291.154 223.819 290 230.176 290ZM230.176 304.621C227.021 304.621 224.291 305.162 221.984 306.245C219.724 307.281 217.98 308.787 216.756 310.764C215.532 312.695 214.92 315.003 214.92 317.687C214.92 320.37 215.532 322.701 216.756 324.678C217.98 326.609 219.724 328.116 221.984 329.199C224.291 330.235 227.021 330.752 230.176 330.752C233.33 330.752 236.037 330.235 238.297 329.199C240.605 328.116 242.372 326.609 243.596 324.678C244.82 322.701 245.432 320.37 245.432 317.687C245.432 315.003 244.82 312.695 243.596 310.764C242.372 308.787 240.605 307.281 238.297 306.245C236.037 305.162 233.33 304.621 230.176 304.621Z" fill="#010C36" style="fill:#010C36;fill:color(display-p3 0.0041 0.0456 0.2115);fill-opacity:1;"/>
<path d="M358.381 290C364.125 290 369.212 290.988 373.638 292.966C378.111 294.943 381.689 297.722 384.373 301.301C387.104 304.832 388.752 308.976 389.317 313.732H372.79C372.319 311.707 371.448 309.988 370.177 308.576C368.952 307.116 367.351 306.009 365.374 305.256C363.396 304.455 361.064 304.055 358.381 304.055C355.367 304.055 352.777 304.596 350.612 305.679C348.446 306.762 346.774 308.34 345.597 310.411C344.42 312.436 343.832 314.861 343.832 317.687C343.832 320.512 344.42 322.937 345.597 324.962C346.774 326.986 348.446 328.563 350.612 329.693C352.777 330.776 355.367 331.318 358.381 331.318C361.064 331.318 363.396 330.965 365.374 330.259C367.351 329.505 368.952 328.398 370.177 326.938C371.448 325.479 372.319 323.713 372.79 321.642H389.317C388.752 326.35 387.104 330.494 384.373 334.073C381.689 337.651 378.111 340.43 373.638 342.407C369.212 344.385 364.125 345.373 358.381 345.373C352.166 345.373 346.728 344.219 342.067 341.912C337.405 339.605 333.779 336.379 331.189 332.235C328.6 328.092 327.305 323.243 327.305 317.687C327.305 312.13 328.6 307.28 331.189 303.136C333.779 298.993 337.405 295.768 342.067 293.461C346.728 291.154 352.166 290 358.381 290Z" fill="#0077FF" style="fill:#0077FF;fill:color(display-p3 0.0000 0.4667 1.0000);fill-opacity:1;"/>
<path d="M55.726 305.822H36.092V344.172H19.6355V305.822H0V291.201H55.726V305.822Z" fill="#010C36" style="fill:#010C36;fill:color(display-p3 0.0041 0.0456 0.2115);fill-opacity:1;"/>
<path fill-rule="evenodd" clip-rule="evenodd" d="M118.014 344.172H100.427L96.4298 334.637H70.3954L66.3839 344.172H48.8678L72.5289 291.201H94.2822L118.014 344.172ZM75.9211 321.501H90.9244L83.4345 303.633L75.9211 321.501Z" fill="#010C36" style="fill:#010C36;fill:color(display-p3 0.0041 0.0456 0.2115);fill-opacity:1;"/>
<path d="M138.96 344.172H122.503V291.201H138.96V344.172Z" fill="#010C36" style="fill:#010C36;fill:color(display-p3 0.0041 0.0456 0.2115);fill-opacity:1;"/>
<path d="M164.549 329.552H196.614V344.172H148.093V291.201H164.549V329.552Z" fill="#010C36" style="fill:#010C36;fill:color(display-p3 0.0041 0.0456 0.2115);fill-opacity:1;"/>
<path fill-rule="evenodd" clip-rule="evenodd" d="M301.35 291.201C305.447 291.201 309.05 291.931 312.157 293.391C315.265 294.85 317.69 296.875 319.432 299.465C321.174 302.055 322.046 305.092 322.046 308.576C322.045 311.966 321.174 314.979 319.432 317.616C317.69 320.206 315.265 322.231 312.157 323.69C311.341 324.061 310.49 324.381 309.605 324.655L323.952 344.172H305.094L292.014 325.808H285.46V344.172H269.003V291.201H301.35ZM285.46 314.084H298.878C300.95 314.084 302.551 313.614 303.681 312.672C304.858 311.73 305.446 310.365 305.446 308.576C305.446 306.787 304.858 305.42 303.681 304.478C302.551 303.537 300.95 303.066 298.878 303.066H285.46V314.084Z" fill="#010C36" style="fill:#010C36;fill:color(display-p3 0.0041 0.0456 0.2115);fill-opacity:1;"/>
<path d="M422.216 328.765L438.432 291.201H455.665L431.369 344.172H412.652L388.356 291.201H405.943L422.216 328.765Z" fill="#0077FF" style="fill:#0077FF;fill:color(display-p3 0.0000 0.4667 1.0000);fill-opacity:1;"/>
<path d="M120.2 1.70009L118 3.20009V70.1001V136.9L112.8 137.6C85.3001 141.1 65.7001 157.5 59.4001 182.1C57.1001 191.1 57.9001 209.2 61.0001 217.8C67.2001 235.4 83.1001 250.1 100.5 254.2C108.6 256.1 124.3 255.7 134.3 253.2C160.2 247 182.7 233 219.8 200.2C239.8 182.5 251.9 173.5 264.9 166.8C279.7 159.1 288.2 156.7 300 156.7C311.4 156.7 318.4 159 326.3 165.5C350 184.9 344.8 222.2 316.7 234C311.4 236.2 309.1 236.5 301 236.5C286.5 236.4 272.2 231.1 254 219.4C249.3 216.3 242.7 211.6 239.2 208.9L232.9 204L225.4 210.8L217.9 217.5L220.2 219.4C227.2 224.9 242.5 235.4 249.5 239.5C287.6 261.4 321.9 260.8 343.9 237.6C351.5 229.6 356 221.3 358.5 211C361.7 197.3 359.5 180.5 352.8 167.8C346 155 331 143.4 315.9 139.4C306.8 137 290.8 137.3 280.6 140C257.3 146.2 237.6 158.6 205.6 187.1C173.9 215.2 152.6 228.8 130.7 234.7C121.4 237.3 107.9 237 100.8 234.2C84.4001 227.8 73.6001 208 76.9001 190.3C79.0001 178.7 86.3001 167.9 95.7001 162.4C100.9 159.4 111 156.1 115.1 156.1H118V186.9C118 223.5 117.1 221.1 129.9 221.1C137.6 221.1 138.7 220.8 146 217.1C159.4 210.1 159.5 210.2 143.3 210.1H129V183.7V157.3L134.8 158.7C146.9 161.8 163.2 171 185.5 187.5C186.4 188.2 188.9 186.5 194 182L201.2 175.6L196.9 171.8C189.1 165.1 170.8 153.3 160 148.2C150.8 143.8 140.5 140.3 131.8 138.6L129 138.1V74.6001V11.1001H204.5H280V33.4001C280 49.4001 280.3 56.0001 281.2 56.9001C282.1 57.8001 288.6 58.1001 304.2 58.1001H326V94.3001V130.6L331.3 132.6L336.5 134.6L336.2 92.0001L336 49.4001L311.7 24.7001L287.5 9.38494e-05L205 0.100094C131.9 0.100094 122.2 0.300094 120.2 1.70009ZM304.1 32.6001C311.5 40.1001 317.7 46.6001 317.8 47.2001C318.1 47.8001 313.2 48.1001 304.3 47.9001L290.5 47.6001L290.2 33.3001C290.1 25.5001 290.1 19.1001 290.3 19.1001C290.5 19.1001 296.7 25.2001 304.1 32.6001Z" fill="url(#paint0_linear_2844_5043)" style=""/>
<path d="M164.3 34.1003C154.3 40.2003 155 55.0003 165.6 60.1003C179.3 66.8003 192.9 50.5003 184 38.1003C179.7 32.1003 170.6 30.2003 164.3 34.1003Z" fill="#010C36" style="fill:#010C36;fill:color(display-p3 0.0041 0.0456 0.2115);fill-opacity:1;"/>
<path d="M210.799 41.8002C210.099 42.7002 210.099 43.6002 210.999 44.6002C212.099 45.9002 215.699 46.1002 234.899 45.9002L257.499 45.6002V43.1002V40.6002H234.699C217.599 40.6002 211.599 40.9002 210.799 41.8002Z" fill="#010C36" style="fill:#010C36;fill:color(display-p3 0.0041 0.0456 0.2115);fill-opacity:1;"/>
<path d="M211 61.6002C210 62.8002 210 63.4002 211 64.6002C212.1 65.9002 215.7 66.1002 234.9 65.9002L257.5 65.6002V63.1002V60.6002L234.9 60.3002C215.7 60.1002 212.1 60.3002 211 61.6002Z" fill="#010C36" style="fill:#010C36;fill:color(display-p3 0.0041 0.0456 0.2115);fill-opacity:1;"/>
<path d="M160.6 67.6001C154.1 69.9001 146.1 79.4001 146 84.8001C146 85.8001 151.9 86.1001 172.1 86.1001H198.1L197.4 83.8001C195.9 78.9001 195.1 77.4001 192.4 74.2001C188 68.9001 180.9 66.1001 172 66.2001C167.9 66.2001 162.8 66.8001 160.6 67.6001Z" fill="#010C36" style="fill:#010C36;fill:color(display-p3 0.0041 0.0456 0.2115);fill-opacity:1;"/>
<path d="M210.299 81.7001C208.899 85.5001 210.599 85.6001 258.799 85.3001C284.499 85.2001 306.099 85.1001 306.799 85.1001C307.599 85.1001 307.999 84.2001 307.799 82.8001L307.499 80.6001L259.199 80.3001C215.999 80.1001 210.899 80.2001 210.299 81.7001Z" fill="#010C36" style="fill:#010C36;fill:color(display-p3 0.0041 0.0456 0.2115);fill-opacity:1;"/>
<path d="M146.7 100.8C146 101.4 145.7 105 146.3 105.2C147.6 105.7 303.8 106.1 305.7 105.6C307.5 105.2 308 104.5 307.8 102.8L307.5 100.6L227.4 100.3C183.4 100.2 147 100.4 146.7 100.8Z" fill="#010C36" style="fill:#010C36;fill:color(display-p3 0.0041 0.0456 0.2115);fill-opacity:1;"/>
<path d="M146.399 121.6C146.099 122.4 146.099 123.5 146.499 124.1C146.899 124.8 172.599 125.1 227.599 125.1H307.999V122.6V120.1H227.499C157.999 120.1 146.899 120.3 146.399 121.6Z" fill="#010C36" style="fill:#010C36;fill:color(display-p3 0.0041 0.0456 0.2115);fill-opacity:1;"/>
<path d="M45.323 391H42.98V368.89H46.181L53.606 383.311L55.553 387.403H55.718L57.632 383.311L65.024 368.89H68.258V391H65.915V375.424L65.981 372.454H65.783L64.397 375.424L57.038 389.68H54.2L46.841 375.424L45.422 372.454H45.257L45.323 375.424V391ZM76.6983 391.33C73.4973 391.33 71.3193 389.812 71.3193 387.172C71.3193 384.499 73.5303 383.344 76.5663 383.014L84.3213 382.156V380.902C84.3213 377.734 82.9353 376.48 79.3713 376.48C75.8733 376.48 74.0253 377.734 74.0253 380.605V380.737H71.6823V380.605C71.6823 377.173 74.5203 374.368 79.5363 374.368C84.4863 374.368 86.5983 377.206 86.5983 380.803V391H84.4863V386.611H84.3213C83.3643 389.614 80.4933 391.33 76.6983 391.33ZM73.6623 387.007C73.6623 388.657 74.7513 389.515 77.2263 389.515C81.1863 389.515 84.3213 387.766 84.3213 383.839V383.707L77.2923 384.499C74.8503 384.73 73.6623 385.324 73.6623 387.007ZM91.5717 391H88.7667L96.1917 382.882V382.717L88.7667 374.698H91.6047L97.9737 381.463H98.1387L104.475 374.698H107.28L99.8217 382.651V382.816L107.28 391H104.442L98.0397 384.103H97.9077L91.5717 391ZM111.903 372.619H109.56V368.89H111.903V372.619ZM111.903 391H109.56V374.698H111.903V391ZM118.187 391H115.844V374.698H117.956V379.615H118.088C118.55 376.876 120.431 374.368 124.49 374.368C128.12 374.368 130.166 376.612 130.694 379.78H130.859C131.321 376.975 133.268 374.368 137.36 374.368C141.617 374.368 143.828 377.371 143.828 381.496V391H141.485V381.826C141.485 378.196 139.934 376.513 136.502 376.513C132.575 376.513 130.991 378.79 130.991 383.113V391H128.648V381.826C128.648 378.196 127.13 376.513 123.698 376.513C119.738 376.513 118.187 378.79 118.187 383.113V391ZM149.995 372.619H147.652V368.89H149.995V372.619ZM149.995 391H147.652V374.698H149.995V391ZM169.347 391H152.814V388.954L162.252 379.945L165.684 376.909V376.744L162.252 376.81H153.309V374.698H168.852V376.777L158.787 386.281L155.85 388.822V388.987L158.787 388.921H169.347V391ZM179.931 391.33C174.684 391.33 171.351 388.03 171.351 382.849C171.351 377.899 174.651 374.368 179.898 374.368C184.683 374.368 188.082 377.14 188.082 381.991C188.082 382.585 188.016 383.08 187.917 383.509H173.562C173.694 387.172 175.575 389.383 179.898 389.383C183.726 389.383 185.508 387.964 185.508 385.588V385.357H187.851V385.588C187.851 388.987 184.485 391.33 179.931 391.33ZM179.865 376.315C175.641 376.315 173.727 378.493 173.562 382.057H185.871C185.871 381.892 185.871 381.727 185.871 381.562C185.871 378.13 183.693 376.315 179.865 376.315ZM199.394 396.61H197.348V394.465H199.823C201.473 394.465 202.1 393.97 202.727 392.617L203.519 390.967L195.434 374.698H198.008L202.793 384.4L204.608 388.393H204.806L206.555 384.367L211.076 374.698H213.65L204.806 393.277C203.618 395.785 202.1 396.61 199.394 396.61ZM223.894 391.33C218.581 391.33 215.05 387.799 215.05 382.849C215.05 377.899 218.581 374.368 223.894 374.368C229.24 374.368 232.771 377.899 232.771 382.849C232.771 387.799 229.24 391.33 223.894 391.33ZM223.894 389.218C228.382 389.218 230.461 386.809 230.461 382.849C230.461 378.922 228.382 376.48 223.894 376.48C219.406 376.48 217.36 378.922 217.36 382.849C217.36 386.809 219.406 389.218 223.894 389.218ZM242.719 391.33C238.066 391.33 235.789 388.096 235.789 384.235V374.698H238.132V383.872C238.132 387.271 239.782 389.218 243.544 389.218C247.537 389.218 249.616 386.809 249.616 382.618V374.698H251.959V391H249.847V385.918H249.682C249.121 388.69 246.778 391.33 242.719 391.33ZM258.244 391H255.901V374.698H258.013V379.153H258.178C258.673 376.546 260.521 374.368 263.92 374.368C267.682 374.368 269.332 377.14 269.332 380.176V381.793H266.989V380.539C266.989 377.767 265.834 376.414 262.996 376.414C259.696 376.414 258.244 378.493 258.244 382.156V391ZM280.448 396.61H278.105V374.698H280.217V379.285H280.481C281.207 376.348 283.649 374.368 287.51 374.368C292.592 374.368 295.496 377.899 295.496 382.849C295.496 387.799 292.625 391.33 287.444 391.33C283.847 391.33 281.24 389.35 280.481 386.215H280.448V396.61ZM280.448 383.146C280.448 387.007 282.989 389.185 286.817 389.185C290.612 389.185 293.12 387.568 293.12 382.849C293.12 378.13 290.579 376.546 286.883 376.546C282.824 376.546 280.448 378.823 280.448 382.849V383.146ZM306.362 391.33C301.049 391.33 297.518 387.799 297.518 382.849C297.518 377.899 301.049 374.368 306.362 374.368C311.708 374.368 315.239 377.899 315.239 382.849C315.239 387.799 311.708 391.33 306.362 391.33ZM306.362 389.218C310.85 389.218 312.929 386.809 312.929 382.849C312.929 378.922 310.85 376.48 306.362 376.48C301.874 376.48 299.828 378.922 299.828 382.849C299.828 386.809 301.874 389.218 306.362 389.218ZM328.355 391H324.824C321.59 391 319.511 389.647 319.511 385.819V376.711H316.607V374.698H319.511V370.804H321.887V374.698H328.355V376.711H321.887V385.951C321.887 388.228 323.009 388.855 325.385 388.855H328.355V391ZM338.679 391.33C333.432 391.33 330.099 388.03 330.099 382.849C330.099 377.899 333.399 374.368 338.646 374.368C343.431 374.368 346.83 377.14 346.83 381.991C346.83 382.585 346.764 383.08 346.665 383.509H332.31C332.442 387.172 334.323 389.383 338.646 389.383C342.474 389.383 344.256 387.964 344.256 385.588V385.357H346.599V385.588C346.599 388.987 343.233 391.33 338.679 391.33ZM338.613 376.315C334.389 376.315 332.475 378.493 332.31 382.057H344.619C344.619 381.892 344.619 381.727 344.619 381.562C344.619 378.13 342.441 376.315 338.613 376.315ZM352.281 391H349.938V374.698H352.05V379.813H352.215C352.776 377.041 355.086 374.368 359.145 374.368C363.732 374.368 366.009 377.635 366.009 381.496V391H363.666V381.826C363.666 378.46 362.049 376.513 358.32 376.513C354.36 376.513 352.281 378.922 352.281 383.113V391ZM379.821 391H376.29C373.056 391 370.977 389.647 370.977 385.819V376.711H368.073V374.698H370.977V370.804H373.353V374.698H379.821V376.711H373.353V385.951C373.353 388.228 374.475 388.855 376.851 388.855H379.821V391ZM384.733 372.619H382.39V368.89H384.733V372.619ZM384.733 391H382.39V374.698H384.733V391ZM393.195 391.33C389.994 391.33 387.816 389.812 387.816 387.172C387.816 384.499 390.027 383.344 393.063 383.014L400.818 382.156V380.902C400.818 377.734 399.432 376.48 395.868 376.48C392.37 376.48 390.522 377.734 390.522 380.605V380.737H388.179V380.605C388.179 377.173 391.017 374.368 396.033 374.368C400.983 374.368 403.095 377.206 403.095 380.803V391H400.983V386.611H400.818C399.861 389.614 396.99 391.33 393.195 391.33ZM390.159 387.007C390.159 388.657 391.248 389.515 393.723 389.515C397.683 389.515 400.818 387.766 400.818 383.839V383.707L393.789 384.499C391.347 384.73 390.159 385.324 390.159 387.007ZM409.29 391H406.947V368.89H409.29V391Z" fill="black" style="fill:black;fill-opacity:1;"/>
<defs>
<linearGradient id="paint0_linear_2844_5043" x1="209.011" y1="9.15527e-05" x2="209.011" y2="255.476" gradientUnits="userSpaceOnUse">
<stop stop-color="#010C36" style="stop-color:#010C36;stop-color:color(display-p3 0.0041 0.0456 0.2115);stop-opacity:1;"/>
<stop offset="1" stop-color="#0077FF" style="stop-color:#0077FF;stop-color:color(display-p3 0.0000 0.4667 1.0000);stop-opacity:1;"/>
</linearGradient>
</defs>
</svg>
