<svg width="458" height="111" viewBox="0 0 458 111" fill="none" xmlns="http://www.w3.org/2000/svg">
<path fill-rule="evenodd" clip-rule="evenodd" d="M232.176 0C238.532 0 244.088 1.15406 248.844 3.46122C253.647 5.76833 257.367 8.99303 260.004 13.1363C262.687 17.2799 264.029 22.1305 264.029 27.6866C264.029 33.2425 262.687 38.0919 260.004 42.2354C257.367 46.3789 253.647 49.6048 248.844 51.912C244.088 54.2192 238.532 55.3733 232.176 55.3733C225.819 55.3732 220.24 54.2192 215.437 51.912C210.682 49.6048 206.962 46.3789 204.278 42.2354C201.641 38.0919 200.323 33.2425 200.323 27.6866C200.323 22.1305 201.641 17.2799 204.278 13.1363C206.961 8.99302 210.682 5.76834 215.437 3.46122C220.24 1.15406 225.819 8.89028e-06 232.176 0ZM232.176 14.6208C229.021 14.6208 226.291 15.162 223.984 16.2448C221.724 17.2807 219.98 18.7867 218.756 20.7642C217.532 22.6947 216.92 25.0027 216.92 27.6866C216.92 30.3701 217.532 32.7006 218.756 34.678C219.98 36.6086 221.724 38.116 223.984 39.1989C226.291 40.2347 229.021 40.7524 232.176 40.7524C235.33 40.7524 238.037 40.2347 240.298 39.1989C242.605 38.116 244.372 36.6086 245.596 34.678C246.82 32.7006 247.432 30.3701 247.432 27.6866C247.432 25.0027 246.82 22.6947 245.596 20.7642C244.372 18.7867 242.605 17.2807 240.298 16.2448C238.037 15.162 235.33 14.6208 232.176 14.6208Z" fill="#010C36" style="fill:#010C36;fill:color(display-p3 0.0041 0.0456 0.2115);fill-opacity:1;"/>
<path d="M360.381 0C366.125 0 371.212 0.988254 375.638 2.96586C380.111 4.94346 383.689 7.72227 386.373 11.3007C389.104 14.8321 390.752 18.9759 391.317 23.7316H374.79C374.319 21.7071 373.448 19.9884 372.177 18.5758C370.952 17.1162 369.351 16.0091 367.374 15.2557C365.396 14.4553 363.064 14.0549 360.381 14.0549C357.367 14.055 354.777 14.5961 352.612 15.679C350.446 16.7619 348.774 18.3397 347.597 20.4115C346.42 22.4362 345.832 24.8615 345.832 27.6866C345.832 30.5118 346.42 32.9371 347.597 34.9618C348.774 36.9862 350.446 38.5627 352.612 39.6927C354.777 40.7756 357.367 41.3182 360.381 41.3183C363.064 41.3183 365.396 40.9649 367.374 40.2586C369.351 39.5053 370.952 38.3982 372.177 36.9385C373.448 35.4789 374.319 33.7132 374.79 31.6416H391.317C390.752 36.3502 389.104 40.494 386.373 44.0726C383.689 47.651 380.111 50.4298 375.638 52.4074C371.212 54.385 366.125 55.3733 360.381 55.3733C354.166 55.3732 348.728 54.219 344.067 51.912C339.405 49.6048 335.779 46.3789 333.189 42.2354C330.6 38.0919 329.305 33.2425 329.305 27.6866C329.305 22.1305 330.6 17.2799 333.189 13.1363C335.779 8.99302 339.405 5.76834 344.067 3.46122C348.728 1.15424 354.166 9.3948e-05 360.381 0Z" fill="#0162D7" style="fill:#0162D7;fill:color(display-p3 0.0039 0.3843 0.8431);fill-opacity:1;"/>
<path d="M57.726 15.8216H38.092V54.1725H21.6355V15.8216H2V1.20077H57.726V15.8216Z" fill="#010C36" style="fill:#010C36;fill:color(display-p3 0.0041 0.0456 0.2115);fill-opacity:1;"/>
<path fill-rule="evenodd" clip-rule="evenodd" d="M120.014 54.1725H102.427L98.4298 44.6369H72.3954L68.3839 54.1725H50.8678L74.5289 1.20077H96.2822L120.014 54.1725ZM77.9211 31.5006H92.9244L85.4345 13.6333L77.9211 31.5006Z" fill="#010C36" style="fill:#010C36;fill:color(display-p3 0.0041 0.0456 0.2115);fill-opacity:1;"/>
<path d="M140.96 54.1725H124.503V1.20077H140.96V54.1725Z" fill="#010C36" style="fill:#010C36;fill:color(display-p3 0.0041 0.0456 0.2115);fill-opacity:1;"/>
<path d="M166.549 39.5517H198.614V54.1725H150.093V1.20077H166.549V39.5517Z" fill="#010C36" style="fill:#010C36;fill:color(display-p3 0.0041 0.0456 0.2115);fill-opacity:1;"/>
<path fill-rule="evenodd" clip-rule="evenodd" d="M303.35 1.20077C307.447 1.20077 311.05 1.93101 314.157 3.39068C317.265 4.85033 319.69 6.87548 321.432 9.46506C323.174 12.0546 324.046 15.0919 324.046 18.5758C324.045 21.9658 323.174 24.9794 321.432 27.6161C319.69 30.2058 317.265 32.2308 314.157 33.6905C313.341 34.0615 312.49 34.381 311.605 34.6545L325.952 54.1725H307.094L294.014 35.8083H287.46V54.1725H271.003V1.20077H303.35ZM287.46 24.0843H300.878C302.95 24.0843 304.551 23.6136 305.681 22.6719C306.858 21.7303 307.446 20.3649 307.446 18.5758C307.446 16.7866 306.858 15.4199 305.681 14.4782C304.551 13.5367 302.95 13.0658 300.878 13.0658H287.46V24.0843Z" fill="#010C36" style="fill:#010C36;fill:color(display-p3 0.0041 0.0456 0.2115);fill-opacity:1;"/>
<path d="M424.216 38.7647L440.432 1.20077H457.665L433.369 54.1725H414.652L390.356 1.20077H407.943L424.216 38.7647Z" fill="#0162D7" style="fill:#0162D7;fill:color(display-p3 0.0039 0.3843 0.8431);fill-opacity:1;"/>
<path d="M47.323 101H44.98V78.89H48.181L55.606 93.311L57.553 97.403H57.718L59.632 93.311L67.024 78.89H70.258V101H67.915V85.424L67.981 82.454H67.783L66.397 85.424L59.038 99.68H56.2L48.841 85.424L47.422 82.454H47.257L47.323 85.424V101ZM78.6983 101.33C75.4973 101.33 73.3193 99.812 73.3193 97.172C73.3193 94.499 75.5303 93.344 78.5663 93.014L86.3213 92.156V90.902C86.3213 87.734 84.9353 86.48 81.3713 86.48C77.8733 86.48 76.0253 87.734 76.0253 90.605V90.737H73.6823V90.605C73.6823 87.173 76.5203 84.368 81.5363 84.368C86.4863 84.368 88.5983 87.206 88.5983 90.803V101H86.4863V96.611H86.3213C85.3643 99.614 82.4933 101.33 78.6983 101.33ZM75.6623 97.007C75.6623 98.657 76.7513 99.515 79.2263 99.515C83.1863 99.515 86.3213 97.766 86.3213 93.839V93.707L79.2923 94.499C76.8503 94.73 75.6623 95.324 75.6623 97.007ZM93.5717 101H90.7667L98.1917 92.882V92.717L90.7667 84.698H93.6047L99.9737 91.463H100.139L106.475 84.698H109.28L101.822 92.651V92.816L109.28 101H106.442L100.04 94.103H99.9077L93.5717 101ZM113.903 82.619H111.56V78.89H113.903V82.619ZM113.903 101H111.56V84.698H113.903V101ZM120.187 101H117.844V84.698H119.956V89.615H120.088C120.55 86.876 122.431 84.368 126.49 84.368C130.12 84.368 132.166 86.612 132.694 89.78H132.859C133.321 86.975 135.268 84.368 139.36 84.368C143.617 84.368 145.828 87.371 145.828 91.496V101H143.485V91.826C143.485 88.196 141.934 86.513 138.502 86.513C134.575 86.513 132.991 88.79 132.991 93.113V101H130.648V91.826C130.648 88.196 129.13 86.513 125.698 86.513C121.738 86.513 120.187 88.79 120.187 93.113V101ZM151.995 82.619H149.652V78.89H151.995V82.619ZM151.995 101H149.652V84.698H151.995V101ZM171.347 101H154.814V98.954L164.252 89.945L167.684 86.909V86.744L164.252 86.81H155.309V84.698H170.852V86.777L160.787 96.281L157.85 98.822V98.987L160.787 98.921H171.347V101ZM181.931 101.33C176.684 101.33 173.351 98.03 173.351 92.849C173.351 87.899 176.651 84.368 181.898 84.368C186.683 84.368 190.082 87.14 190.082 91.991C190.082 92.585 190.016 93.08 189.917 93.509H175.562C175.694 97.172 177.575 99.383 181.898 99.383C185.726 99.383 187.508 97.964 187.508 95.588V95.357H189.851V95.588C189.851 98.987 186.485 101.33 181.931 101.33ZM181.865 86.315C177.641 86.315 175.727 88.493 175.562 92.057H187.871C187.871 91.892 187.871 91.727 187.871 91.562C187.871 88.13 185.693 86.315 181.865 86.315ZM201.394 106.61H199.348V104.465H201.823C203.473 104.465 204.1 103.97 204.727 102.617L205.519 100.967L197.434 84.698H200.008L204.793 94.4L206.608 98.393H206.806L208.555 94.367L213.076 84.698H215.65L206.806 103.277C205.618 105.785 204.1 106.61 201.394 106.61ZM225.894 101.33C220.581 101.33 217.05 97.799 217.05 92.849C217.05 87.899 220.581 84.368 225.894 84.368C231.24 84.368 234.771 87.899 234.771 92.849C234.771 97.799 231.24 101.33 225.894 101.33ZM225.894 99.218C230.382 99.218 232.461 96.809 232.461 92.849C232.461 88.922 230.382 86.48 225.894 86.48C221.406 86.48 219.36 88.922 219.36 92.849C219.36 96.809 221.406 99.218 225.894 99.218ZM244.719 101.33C240.066 101.33 237.789 98.096 237.789 94.235V84.698H240.132V93.872C240.132 97.271 241.782 99.218 245.544 99.218C249.537 99.218 251.616 96.809 251.616 92.618V84.698H253.959V101H251.847V95.918H251.682C251.121 98.69 248.778 101.33 244.719 101.33ZM260.244 101H257.901V84.698H260.013V89.153H260.178C260.673 86.546 262.521 84.368 265.92 84.368C269.682 84.368 271.332 87.14 271.332 90.176V91.793H268.989V90.539C268.989 87.767 267.834 86.414 264.996 86.414C261.696 86.414 260.244 88.493 260.244 92.156V101ZM282.448 106.61H280.105V84.698H282.217V89.285H282.481C283.207 86.348 285.649 84.368 289.51 84.368C294.592 84.368 297.496 87.899 297.496 92.849C297.496 97.799 294.625 101.33 289.444 101.33C285.847 101.33 283.24 99.35 282.481 96.215H282.448V106.61ZM282.448 93.146C282.448 97.007 284.989 99.185 288.817 99.185C292.612 99.185 295.12 97.568 295.12 92.849C295.12 88.13 292.579 86.546 288.883 86.546C284.824 86.546 282.448 88.823 282.448 92.849V93.146ZM308.362 101.33C303.049 101.33 299.518 97.799 299.518 92.849C299.518 87.899 303.049 84.368 308.362 84.368C313.708 84.368 317.239 87.899 317.239 92.849C317.239 97.799 313.708 101.33 308.362 101.33ZM308.362 99.218C312.85 99.218 314.929 96.809 314.929 92.849C314.929 88.922 312.85 86.48 308.362 86.48C303.874 86.48 301.828 88.922 301.828 92.849C301.828 96.809 303.874 99.218 308.362 99.218ZM330.355 101H326.824C323.59 101 321.511 99.647 321.511 95.819V86.711H318.607V84.698H321.511V80.804H323.887V84.698H330.355V86.711H323.887V95.951C323.887 98.228 325.009 98.855 327.385 98.855H330.355V101ZM340.679 101.33C335.432 101.33 332.099 98.03 332.099 92.849C332.099 87.899 335.399 84.368 340.646 84.368C345.431 84.368 348.83 87.14 348.83 91.991C348.83 92.585 348.764 93.08 348.665 93.509H334.31C334.442 97.172 336.323 99.383 340.646 99.383C344.474 99.383 346.256 97.964 346.256 95.588V95.357H348.599V95.588C348.599 98.987 345.233 101.33 340.679 101.33ZM340.613 86.315C336.389 86.315 334.475 88.493 334.31 92.057H346.619C346.619 91.892 346.619 91.727 346.619 91.562C346.619 88.13 344.441 86.315 340.613 86.315ZM354.281 101H351.938V84.698H354.05V89.813H354.215C354.776 87.041 357.086 84.368 361.145 84.368C365.732 84.368 368.009 87.635 368.009 91.496V101H365.666V91.826C365.666 88.46 364.049 86.513 360.32 86.513C356.36 86.513 354.281 88.922 354.281 93.113V101ZM381.821 101H378.29C375.056 101 372.977 99.647 372.977 95.819V86.711H370.073V84.698H372.977V80.804H375.353V84.698H381.821V86.711H375.353V95.951C375.353 98.228 376.475 98.855 378.851 98.855H381.821V101ZM386.733 82.619H384.39V78.89H386.733V82.619ZM386.733 101H384.39V84.698H386.733V101ZM395.195 101.33C391.994 101.33 389.816 99.812 389.816 97.172C389.816 94.499 392.027 93.344 395.063 93.014L402.818 92.156V90.902C402.818 87.734 401.432 86.48 397.868 86.48C394.37 86.48 392.522 87.734 392.522 90.605V90.737H390.179V90.605C390.179 87.173 393.017 84.368 398.033 84.368C402.983 84.368 405.095 87.206 405.095 90.803V101H402.983V96.611H402.818C401.861 99.614 398.99 101.33 395.195 101.33ZM392.159 97.007C392.159 98.657 393.248 99.515 395.723 99.515C399.683 99.515 402.818 97.766 402.818 93.839V93.707L395.789 94.499C393.347 94.73 392.159 95.324 392.159 97.007ZM411.29 101H408.947V78.89H411.29V101Z" fill="#010C36" style="fill:#010C36;fill:color(display-p3 0.0041 0.0456 0.2115);fill-opacity:1;"/>
</svg>
