<svg width="80" height="32" viewBox="0 0 80 32" fill="none" xmlns="http://www.w3.org/2000/svg">
<path d="M78.0005 28.2926V11.2627H69.8545C69.5459 11.2624 69.2501 11.134 69.032 10.9057C68.8139 10.6775 68.6915 10.3681 68.6915 10.0455V1.52931H52.4006C52.092 1.52931 51.7961 1.65737 51.5778 1.88535C51.3595 2.11334 51.2367 2.4226 51.2363 2.74518V28.2926C51.2363 28.6154 51.359 28.925 51.5773 29.1533C51.7957 29.3815 52.0918 29.5098 52.4006 29.5098H76.8375C77.1461 29.5094 77.4419 29.381 77.66 29.1528C77.878 28.9246 78.0005 28.6152 78.0005 28.2926Z" fill="#2563EB" style="fill:#2563EB;fill:color(display-p3 0.1451 0.3882 0.9216);fill-opacity:1;"/>
<path d="M77.9985 11.2612L68.6895 1.52912V10.0454C68.6898 10.3677 68.8124 10.6768 69.0305 10.9047C69.2485 11.1327 69.5441 11.2609 69.8525 11.2612H77.9985Z" fill="#2563EB" style="fill:#2563EB;fill:color(display-p3 0.1451 0.3882 0.9216);fill-opacity:1;"/>
<path d="M78.0005 28.2926V11.2627H69.8545C69.5459 11.2624 69.2501 11.134 69.032 10.9057C68.8139 10.6775 68.6915 10.3681 68.6915 10.0455V1.52931H52.4006C52.092 1.52931 51.7961 1.65737 51.5778 1.88535C51.3595 2.11334 51.2367 2.4226 51.2363 2.74518V28.2926C51.2363 28.6154 51.359 28.925 51.5773 29.1533C51.7957 29.3815 52.0918 29.5098 52.4006 29.5098H76.8375C77.1461 29.5094 77.4419 29.381 77.66 29.1528C77.878 28.9246 78.0005 28.6152 78.0005 28.2926Z" stroke="#191919" style="stroke:#191919;stroke:color(display-p3 0.0980 0.0980 0.0980);stroke-opacity:1;" stroke-width="2" stroke-linejoin="round"/>
<path d="M77.9985 11.3828L68.6895 1.6507V10.1669C68.6898 10.4893 68.8124 10.7984 69.0305 11.0263C69.2485 11.2543 69.5441 11.3825 69.8525 11.3828H77.9985Z" stroke="#191919" style="stroke:#191919;stroke:color(display-p3 0.0980 0.0980 0.0980);stroke-opacity:1;" stroke-width="2" stroke-linecap="round" stroke-linejoin="round"/>
<path d="M3.96578 12.9618H1V11.0669H9.98127V12.9618H7.01549V24.8885H3.96578V12.9618Z" fill="#191919" style="fill:#191919;fill:color(display-p3 0.0980 0.0980 0.0980);fill-opacity:1;"/>
<path d="M11.9175 24.8885C11.1714 24.8885 10.6398 24.7994 10.3227 24.621C10.0056 24.4278 9.80043 24.1231 9.70716 23.707C9.63255 23.276 9.59525 22.7038 9.59525 21.9904V16.9076C9.59525 16.328 9.68851 15.8599 9.87504 15.5032C10.0616 15.1316 10.388 14.8567 10.8543 14.6783C11.3206 14.5 11.9735 14.4108 12.8128 14.4108H18.5206V24.8885H15.5548V16.3057H13.5962C13.2792 16.3057 13.046 16.3429 12.8968 16.4172C12.7476 16.4915 12.6543 16.6104 12.617 16.7739C12.5797 16.9225 12.561 17.1306 12.561 17.3981V21.8344C12.561 22.1762 12.589 22.4289 12.645 22.5924C12.7009 22.7558 12.7942 22.8673 12.9248 22.9268C13.074 22.9713 13.2792 22.9936 13.5403 22.9936H14.9952L14.6874 24.8885H11.9175Z" fill="#191919" style="fill:#191919;fill:color(display-p3 0.0980 0.0980 0.0980);fill-opacity:1;"/>
<path d="M20.7724 24.8885V14.4108H23.7382V24.8885H20.7724ZM22.2273 13.3854C21.5558 13.3854 21.1268 13.311 20.9403 13.1624C20.7538 13.0138 20.6605 12.7389 20.6605 12.3376C20.6605 11.9214 20.7538 11.6391 20.9403 11.4904C21.1268 11.327 21.5558 11.2452 22.2273 11.2452C22.9175 11.2452 23.3558 11.327 23.5424 11.4904C23.7289 11.6391 23.8221 11.9214 23.8221 12.3376C23.8221 12.7389 23.7289 13.0138 23.5424 13.1624C23.3558 13.311 22.9175 13.3854 22.2273 13.3854Z" fill="#191919" style="fill:#191919;fill:color(display-p3 0.0980 0.0980 0.0980);fill-opacity:1;"/>
<path d="M25.9365 11H28.9023V24.8885H25.9365V11Z" fill="#191919" style="fill:#191919;fill:color(display-p3 0.0980 0.0980 0.0980);fill-opacity:1;"/>
<path d="M35.3248 25C34.0937 25 33.1611 24.8811 32.5269 24.6433C31.9114 24.4055 31.4917 24.086 31.2678 23.6847C31.044 23.2834 30.9321 22.845 30.9321 22.3694V16.9076C30.9321 16.4172 31.044 15.9788 31.2678 15.5924C31.4917 15.1911 31.9207 14.8715 32.5549 14.6338C33.2077 14.396 34.159 14.2771 35.4087 14.2771C36.5279 14.2771 37.4139 14.396 38.0668 14.6338C38.7196 14.8567 39.1766 15.1614 39.4377 15.5478C39.7175 15.9342 39.8574 16.3726 39.8574 16.8631V22.2803C39.8574 22.8004 39.7175 23.2686 39.4377 23.6847C39.1579 24.086 38.6916 24.4055 38.0388 24.6433C37.3859 24.8811 36.4813 25 35.3248 25ZM35.2968 23.0605C35.8751 23.0605 36.2854 22.949 36.5279 22.7261C36.7704 22.4883 36.8916 22.1985 36.8916 21.8567V17.3089C36.8916 16.9968 36.7704 16.7219 36.5279 16.4841C36.3041 16.2314 35.9217 16.1051 35.3808 16.1051C34.8585 16.1051 34.4761 16.224 34.2336 16.4618C34.0098 16.6996 33.8979 16.982 33.8979 17.3089V21.9236C33.8979 22.2357 34.0098 22.5032 34.2336 22.7261C34.4575 22.949 34.8119 23.0605 35.2968 23.0605Z" fill="#191919" style="fill:#191919;fill:color(display-p3 0.0980 0.0980 0.0980);fill-opacity:1;"/>
<path d="M41.8933 24.8885V14.4108H44.3275L44.6073 15.5032C44.8871 15.087 45.2695 14.7749 45.7544 14.5669C46.2581 14.3588 46.743 14.2548 47.2093 14.2548C47.713 14.2548 48.0953 14.2771 48.3565 14.3217C48.6176 14.3514 48.8321 14.4034 49 14.4777L48.8601 16.5287C48.6549 16.4692 48.3845 16.4246 48.0487 16.3949C47.7316 16.3503 47.3679 16.328 46.9575 16.328C46.4539 16.328 46.0062 16.4469 45.6145 16.6847C45.2228 16.9076 44.971 17.2569 44.8591 17.7325V24.8885H41.8933Z" fill="#191919" style="fill:#191919;fill:color(display-p3 0.0980 0.0980 0.0980);fill-opacity:1;"/>
<path d="M59.3524 26C57.8472 26 56.741 25.7634 56.0337 25.2902C55.3446 24.8013 55 24.1309 55 23.2792V13.9574C55 12.9006 55.3355 12.1435 56.0065 11.6861C56.6775 11.2287 57.7656 11 59.2708 11C60.7216 11 61.8097 11.2287 62.5351 11.6861C63.2786 12.1435 63.6413 12.9085 63.6232 13.9811V17.1041L60.7125 17.4117V14.5962C60.7125 14.1073 60.6218 13.7366 60.4405 13.4842C60.2773 13.2161 59.8964 13.082 59.298 13.082C58.7177 13.082 58.3459 13.224 58.1827 13.5079C58.0376 13.7918 57.9651 14.1467 57.9651 14.5726V22.6877C57.9651 23.0189 58.0557 23.3028 58.2371 23.5394C58.4184 23.776 58.7721 23.8943 59.298 23.8943C59.8602 23.8943 60.2319 23.776 60.4133 23.5394C60.6128 23.3028 60.7125 23.011 60.7125 22.664V20.0379L63.6232 19.7539V23.2792C63.6232 24.1309 63.2514 24.8013 62.5079 25.2902C61.7825 25.7634 60.7307 26 59.3524 26Z" fill="white" style="fill:white;fill-opacity:1;"/>
<path d="M67.9749 25.8344L64.4658 11.1656H67.4037L69.4439 21.9306L69.4711 22.4274H69.4983V21.9306L71.2176 13.082H74L70.9672 25.8344H67.9749Z" fill="white" style="fill:white;fill-opacity:1;"/>
</svg>
